<?xml version="1.0" encoding="utf-8"?>
<!-- Generator: Adobe Illustrator 26.0.3, SVG Export Plug-In . SVG Version: 6.00 Build 0)  -->
<svg version="1.1" id="Слой_1" xmlns="http://www.w3.org/2000/svg" xmlns:xlink="http://www.w3.org/1999/xlink" x="0px" y="0px"
	 viewBox="0 0 200 150" style="enable-background:new 0 0 200 150;" xml:space="preserve">
<style type="text/css">
	.st0{fill:#883425;}
</style>
<g transform="translate(0.000000,150.000000) scale(0.100000,-0.100000)">
	<path class="st0" d="M1350,1490c-209-62-1193-371-1280-402l-65-23L2,719C0,400,1,371,17,352c18-20,139-91,447-264L624-1l535,167
		c766,238,812,252,827,265c11,9,14,76,14,359c0,318-1,348-17,362c-20,17-482,282-559,321C1389,1490,1368,1495,1350,1490z M1615,1273
		l240-137l-100-32c-92-30-542-171-895-280c-80-25-164-51-187-59l-42-13L395,887c-130,75-233,139-228,143c4,4,112,40,238,80
		c228,71,392,123,760,239c105,33,194,60,200,60C1370,1410,1483,1348,1615,1273z M1918,773l-3-287l-120-37c-66-20-192-59-280-87
		c-88-27-254-79-370-115c-115-36-262-82-325-102c-63-19-123-38-132-41c-17-5-18,13-18,285v290l118,36c64,20,230,72,367,115
		c138,43,347,109,465,146c118,36,226,70,240,74C1924,1071,1921,1089,1918,773z M340,824l240-137V404c0-156-2-284-4-284
		s-114,63-250,141L80,402v263c0,234,3,295,16,295C98,960,207,899,340,824z"/>
	<path class="st0" d="M1260,1311c-17-32-3-47,93-104c148-88,153-90,172-71c32,32,14,54-105,125c-63,38-122,69-132,69
		C1279,1330,1266,1321,1260,1311z"/>
	<path class="st0" d="M1015,1230c-9-10-15-26-12-34c6-14,158-113,222-143c28-13,37-14,50-3c20,17,19,43-3,63c-19,17-222,137-233,137
		C1036,1250,1025,1241,1015,1230z"/>
	<path class="st0" d="M770,1150c-12-12-20-27-18-33c5-14,118-92,194-133c60-32,89-27,89,17c0,23-36,50-197,143l-47,27L770,1150z"/>
	<path class="st0" d="M510,1065c-27-32,15-69,181-159c61-34,68-35,83-21c35,36,24,49-108,129C552,1083,531,1090,510,1065z"/>
</g>
</svg>
