<?xml version="1.0" encoding="utf-8"?>
<!-- Generator: Adobe Illustrator 26.0.3, SVG Export Plug-In . SVG Version: 6.00 Build 0)  -->
<svg version="1.1" id="Слой_1" xmlns="http://www.w3.org/2000/svg" xmlns:xlink="http://www.w3.org/1999/xlink" x="0px" y="0px"
	 viewBox="0 0 272 276" style="enable-background:new 0 0 272 276;" xml:space="preserve">
<g transform="translate(0.000000,276.000000) scale(0.100000,-0.100000)">
	<path d="M1153,2731c-78-29-152-72-196-113c-31-29-37-41-32-60c4-13,114-131,245-263c171-172,240-250,248-275c14-42,32-154,32-194
		c0-35,51,15-640-631C128,558,55,486,30,435C0,374,4,306,39,245C75,184,200,60,255,31c84-44,177-19,267,71c83,83,406,425,588,623
		c309,335,701,740,733,757c57,30,113,22,165-25c30-28,29-80-4-128c-34-49-26-75,45-152c81-87,132-117,200-117c87,0,130,27,282,179
		c159,160,196,218,186,301c-8,69-24,95-110,178c-85,82-103,87-173,46c-51-30-89-27-124,11c-25,27-26,25,14,133c9,24,13,54,10,68
		c-4,14-114,134-258,278c-335,339-413,409-506,454c-74,36-76,36-220,39C1227,2750,1197,2747,1153,2731z M1468,2653
		c34-8,88-32,120-53s192-173,360-342l303-304l-20-45c-24-52-27-119-6-158c8-16,34-45,57-65l43-37l-104-98l-105-99l-27,38
		c-61,84-132,109-239,84l-64-15l-99,98c-117,116-157,172-157,223c0,62-21,152-47,205c-17,34-72,96-175,197c-82,82-148,154-146,160
		c3,7,29,23,59,36c43,18,68,22,124,19c104-6,145-29,259-144c102-105,152-141,180-130c21,8,20,45-2,79c-9,14-64,70-120,123
		c-137,128-201,160-322,160c-78,0-92-4-168-39l-83-40l-31,31l-31,31l48,31c56,35,126,60,199,71C1335,2679,1383,2674,1468,2653z
		 M2564,1643c78-77,85-137,25-212c-52-66-174-188-240-240c-81-65-141-56-228,33l-44,45l208,215c163,168,212,213,224,206
		C2518,1686,2542,1665,2564,1643z M1670,1555c30-30,52-55,49-55c-2,0-29,25-59,55s-52,55-49,55C1613,1610,1640,1585,1670,1555z
		 M1515,1470c49-49,87-90,85-90c-3,0-46,41-95,90c-49,50-87,90-85,90C1423,1560,1466,1520,1515,1470z M1280,1517c0-1-24-25-52-52
		l-53-50l50,53C1271,1516,1280,1525,1280,1517z M1475,1380c38-38,67-70,64-70c-2,0-36,32-74,70c-38,39-67,70-64,70
		C1403,1450,1437,1419,1475,1380z M1260,1376c0-2-8-10-17-17c-16-13-17-12-4,4S1260,1384,1260,1376z M1100,1347c0-2-19-21-42-42
		l-43-40l40,43C1091,1347,1100,1355,1100,1347z M1351,1333c13-16,12-17-3-4c-10,7-18,15-18,17C1330,1354,1338,1349,1351,1333z
		 M1276,1268l29-33l-32,29c-31,28-38,36-30,36C1245,1300,1259,1285,1276,1268z M1520,1287c0-2-10-12-22-23l-23-19l19,23
		C1512,1289,1520,1295,1520,1287z M940,1197c0-2-19-21-42-42l-43-40l40,43C931,1197,940,1205,940,1197z M1440,1197c0-2-17-19-37-38
		l-38-34l34,38C1432,1197,1440,1205,1440,1197z M1077,1168c-3-8-6-5-6,6c-1,11,2,17,5,13C1079,1184,1080,1175,1077,1168z M1116,1118
		l29-33l-32,29c-31,28-38,36-30,36C1085,1150,1099,1135,1116,1118z M1213,1089c-6-6-7,3-4,23c4,28,6,29,9,9
		C1220,1108,1218,1094,1213,1089z M963,1063c-7-2-19-2-25,0c-7,3-2,5,12,5S969,1066,963,1063z M1270,1015c-24-25-46-45-49-45
		s15,20,39,45s46,45,49,45S1294,1040,1270,1015z M780,1047c0-2-12-14-27-28l-28-24l24,28C772,1048,780,1055,780,1047z M927,1018
		c-3-7-5-2-5,12s2,19,5,13C929,1036,929,1024,927,1018z M966,968l29-33l-32,29c-31,28-38,36-30,36C935,1000,949,985,966,968z
		 M1061,937c-10-9-11-8-5,6c3,10,9,15,12,12S1068,944,1061,937z M660,937c0-1-30-32-67-67l-68-65l65,68C650,935,660,945,660,937z
		 M767,868c-3-8-6-5-6,6c-1,11,2,17,5,13C769,884,770,875,767,868z M1140,877c0-1-24-25-52-52l-53-50l50,53
		C1131,876,1140,885,1140,877z M917,798c-3-8-6-5-6,6c-1,11,2,17,5,13C919,814,920,805,917,798z M410,697c0-2-19-21-42-42l-43-40
		l40,43C401,697,410,705,410,697z M960,687c0-1-24-25-52-52l-53-50l50,53C951,686,960,695,960,687z M565,570c21-22,37-40,34-40
		s-23,18-44,40s-37,40-34,40S544,592,565,570z M467,568c-3-7-5-2-5,12s2,19,5,13C469,586,469,574,467,568z M290,587c0-2-12-14-27-28
		l-28-24l24,28C282,588,290,595,290,587z M790,507c0-2-15-16-32-33l-33-29l29,33C782,508,790,515,790,507z M180,486c0-2-8-10-17-17
		c-16-13-17-12-4,4S180,494,180,486z M363,453c-7-2-19-2-25,0c-7,3-2,5,12,5S369,456,363,453z M690,397c0-2-17-19-37-38l-38-34
		l34,38C682,397,690,405,690,397z M97,343c-3-10-5-4-5,12c0,17,2,24,5,18C99,366,99,352,97,343z M550,247c0-1-30-32-67-67l-68-65
		l65,68C540,245,550,255,550,247z M225,170c10-11,16-20,13-20s-13,9-23,20s-16,20-13,20S215,181,225,170z"/>
	<path d="M1863,2173c-7-2-13-18-13-35c0-22,14-44,56-88c66-69,107-91,131-67c25,25,9,58-66,130C1905,2177,1891,2185,1863,2173z"/>
</g>
</svg>
