<?xml version="1.0" standalone="no"?>
<!DOCTYPE svg PUBLIC "-//W3C//DTD SVG 20010904//EN"
 "http://www.w3.org/TR/2001/REC-SVG-20010904/DTD/svg10.dtd">
<svg version="1.0" xmlns="http://www.w3.org/2000/svg"
 width="100.000000pt" height="100.000000pt" viewBox="0 0 100.000000 100.000000"
 preserveAspectRatio="xMidYMid meet">

<g transform="translate(0.000000,100.000000) scale(0.100000,-0.100000)"
fill="#000000" stroke="none">
<path d="M440 680 c-254 -182 -416 -306 -418 -317 -1 -10 7 -29 19 -41 16 -18
28 -22 49 -17 26 6 32 0 84 -72 56 -78 64 -97 46 -108 -27 -17 4 -85 39 -85 7
0 33 15 58 32 l45 33 19 -23 c14 -18 26 -23 56 -20 35 3 38 6 41 35 3 27 7 33
28 33 21 0 24 5 24 35 0 31 3 35 25 35 21 0 25 5 25 29 0 22 6 30 25 35 20 5
25 13 25 35 0 23 5 30 23 33 17 2 23 11 25 36 3 26 7 32 28 32 21 0 24 5 24
35 0 31 3 35 25 35 22 0 25 4 25 35 0 31 3 35 25 35 21 0 25 5 25 29 0 23 5
30 23 33 17 2 23 11 25 36 3 26 7 32 28 32 21 0 24 5 24 35 0 31 3 35 25 35
23 0 25 4 25 46 0 39 -8 57 -52 120 -28 41 -56 74 -62 73 -6 0 -198 -135 -426
-299z m463 196 c44 -65 48 -96 12 -96 -22 0 -25 -4 -25 -35 0 -31 -3 -35 -25
-35 -22 0 -25 -4 -25 -35 0 -31 -3 -35 -25 -35 -22 0 -25 -4 -25 -35 0 -31 -3
-35 -25 -35 -21 0 -25 -5 -25 -30 0 -25 -4 -30 -25 -30 -22 0 -25 -4 -25 -35
0 -31 -3 -35 -25 -35 -22 0 -25 -4 -25 -35 0 -31 -3 -35 -25 -35 -22 0 -25 -4
-25 -35 0 -30 -3 -35 -24 -35 -21 0 -25 -6 -28 -32 -2 -25 -8 -34 -25 -36 -18
-3 -23 -10 -23 -33 0 -24 -4 -29 -25 -29 -22 0 -25 -4 -25 -35 0 -39 -22 -48
-40 -16 -8 16 -1 38 35 112 27 56 41 96 36 103 -31 40 -141 197 -143 205 -3 8
518 389 532 390 3 1 22 -24 43 -53z m-608 -536 c40 -58 46 -72 35 -85 -7 -8
-18 -15 -24 -15 -11 0 -106 122 -106 136 0 7 32 33 41 34 3 0 27 -31 54 -70z"/>
</g>
</svg>
